<svg width="24" height="22" viewBox="0 0 24 22" version="1.1" xmlns="http://www.w3.org/2000/svg" xmlns:xlink="http://www.w3.org/1999/xlink">
<title>papers</title>
<desc>Created using Figma</desc>
<g id="Canvas" transform="translate(-2756 -338)">
<g id="papers">
<use xlink:href="#path0_fill" transform="translate(2756 338)" fill="#B9BCC1"/>
</g>
</g>
<defs>
<path id="path0_fill" fill-rule="evenodd" d="M 14 0C 13.4478 0 13 0.447723 13 1C 13 1.55228 13.4478 2 14 2L 23 2C 23.5522 2 24 1.55228 24 1C 24 0.447723 23.5522 0 23 0L 14 0ZM 13 5C 13 4.44772 13.4478 4 14 4L 23 4C 23.5522 4 24 4.44772 24 5C 24 5.55228 23.5522 6 23 6L 14 6C 13.4478 6 13 5.55228 13 5ZM 14 8C 13.4478 8 13 8.44772 13 9C 13 9.55228 13.4478 10 14 10L 23 10C 23.5522 10 24 9.55228 24 9C 24 8.44772 23.5522 8 23 8L 14 8ZM 13 13C 13 12.4477 13.4478 12 14 12L 23 12C 23.5522 12 24 12.4477 24 13C 24 13.5523 23.5522 14 23 14L 14 14C 13.4478 14 13 13.5523 13 13ZM 14 16C 13.4478 16 13 16.4477 13 17C 13 17.5523 13.4478 18 14 18L 23 18C 23.5522 18 24 17.5523 24 17C 24 16.4477 23.5522 16 23 16L 14 16ZM 14 20C 13.4478 20 13 20.4477 13 21C 13 21.5523 13.4478 22 14 22L 23 22C 23.5522 22 24 21.5523 24 21C 24 20.4477 23.5522 20 23 20L 14 20ZM 0 14C 0 12.8954 0.895508 12 2 12L 9 12C 10.1045 12 11 12.8954 11 14L 11 20C 11 21.1046 10.1045 22 9 22L 2 22C 0.895508 22 0 21.1046 0 20L 0 14ZM 3 14C 2.44775 14 2 14.4477 2 15L 2 19C 2 19.5523 2.44775 20 3 20L 8 20C 8.55225 20 9 19.5523 9 19L 9 15C 9 14.4477 8.55225 14 8 14L 3 14ZM 0 2C 0 0.895416 0.895508 0 2 0L 9 0C 10.1045 0 11 0.895416 11 2L 11 8C 11 9.10458 10.1045 10 9 10L 2 10C 0.895508 10 0 9.10458 0 8L 0 2ZM 3 2C 2.44775 2 2 2.44772 2 3L 2 7C 2 7.55228 2.44775 8 3 8L 8 8C 8.55225 8 9 7.55228 9 7L 9 3C 9 2.44772 8.55225 2 8 2L 3 2Z"/>
</defs>
</svg>
